<svg xmlns="http://www.w3.org/2000/svg" viewBox="0 0 606.39 711.27"><defs><style>.cls-1{fill:#3f3d56;}.cls-2{fill:#fff;}.cls-3{fill:#e6e6e6;}.cls-4{fill:#6c63ff;}.cls-5{fill:#feb8b8;}.cls-6{fill:#2f2e41;}.cls-7{fill:#ccc;}</style></defs><g id="Layer_2" data-name="Layer 2"><g id="Layer_1-2" data-name="Layer 1"><g id="Group_29" data-name="Group 29"><path id="Path_339-140" data-name="Path 339-140" class="cls-1" d="M354.38,168.89h-3.9v-107A61.91,61.91,0,0,0,288.57,0H61.92A61.91,61.91,0,0,0,0,61.91H0V648.8a61.91,61.91,0,0,0,61.91,61.91H288.56a61.91,61.91,0,0,0,61.92-61.91V245h3.9Z"/><path id="Path_340-141" data-name="Path 340-141" class="cls-2" d="M337.85,57.77V652.94a47,47,0,0,1-46.94,46.95H59.61a47,47,0,0,1-47-46.95V57.77a47,47,0,0,1,47-46.95H87.67a22.34,22.34,0,0,0,20.65,30.74H240.19a22.34,22.34,0,0,0,20.66-30.74h30a47,47,0,0,1,47,46.94Z"/><g id="Group_26" data-name="Group 26"><path id="Path_45-142" data-name="Path 45-142" class="cls-3" d="M177.73,295.87a99.3,99.3,0,0,1-99.34-99.25v-.09c0-.21,0-.43,0-.63.3-54.4,44.86-98.7,99.33-98.7a99.34,99.34,0,1,1,0,198.67Zm0-196.58A97.45,97.45,0,0,0,80.49,196c0,.23,0,.4,0,.57a97.26,97.26,0,1,0,97.27-97.24h0Z"/><g id="Group_27" data-name="Group 27"><circle id="Ellipse_7" data-name="Ellipse 7" class="cls-1" cx="134.28" cy="174.37" r="21.32"/><path id="Path_63-143" data-name="Path 63-143" class="cls-4" d="M201.14,240.07H96.54a2.56,2.56,0,0,1-.39,0l49.47-85.69a3.47,3.47,0,0,1,4.72-1.31,3.43,3.43,0,0,1,1.31,1.31l33.2,57.5,1.59,2.75Z"/><path id="Path_65-144" data-name="Path 65-144" class="cls-4" d="M259.38,240.07H168.91l17.53-25.46,1.26-1.84,22.85-33.18a4.61,4.61,0,0,1,6.49-.74,2.91,2.91,0,0,1,.37.33,3.29,3.29,0,0,1,.33.41Z"/></g></g><path id="Path_39-145" data-name="Path 39-145" class="cls-3" d="M280.45,400.32H74.91a3.81,3.81,0,0,1-3.8-3.81v-51a3.81,3.81,0,0,1,3.8-3.81H280.45a3.81,3.81,0,0,1,3.8,3.81v51a3.81,3.81,0,0,1-3.8,3.81ZM74.91,343.24a2.29,2.29,0,0,0-2.28,2.29v51a2.28,2.28,0,0,0,2.28,2.28H280.45a2.28,2.28,0,0,0,2.28-2.28v-51a2.29,2.29,0,0,0-2.28-2.29Z"/><circle id="Ellipse_5" data-name="Ellipse 5" class="cls-4" cx="101.55" cy="371.02" r="15.99"/><path id="Path_40-146" data-name="Path 40-146" class="cls-3" d="M138.47,360.36a2.67,2.67,0,0,0,0,5.33H264.08a2.67,2.67,0,1,0,.2-5.33H138.47Z"/><path id="Path_41-147" data-name="Path 41-147" class="cls-3" d="M138.47,376.35a2.66,2.66,0,1,0,0,5.32H264.08a2.66,2.66,0,1,0,.2-5.32H138.47Z"/><path id="Path_42-148" data-name="Path 42-148" class="cls-3" d="M280.45,485.58H74.91a3.81,3.81,0,0,1-3.8-3.81v-51a3.81,3.81,0,0,1,3.8-3.81H280.45a3.81,3.81,0,0,1,3.8,3.81v51A3.81,3.81,0,0,1,280.45,485.58ZM74.91,428.5a2.29,2.29,0,0,0-2.28,2.29v51a2.28,2.28,0,0,0,2.28,2.28H280.45a2.28,2.28,0,0,0,2.28-2.28v-51a2.29,2.29,0,0,0-2.28-2.29Z"/><circle id="Ellipse_6" data-name="Ellipse 6" class="cls-4" cx="101.55" cy="456.28" r="15.99"/><path id="Path_43-149" data-name="Path 43-149" class="cls-3" d="M138.47,445.62a2.67,2.67,0,0,0,0,5.33H264.08a2.67,2.67,0,0,0,.09-5.33Z"/><path id="Path_44-150" data-name="Path 44-150" class="cls-3" d="M138.47,461.61a2.67,2.67,0,0,0,0,5.33H264.08a2.67,2.67,0,0,0,.09-5.33Z"/><path id="Path_39-2-151" data-name="Path 39-2-151" class="cls-3" d="M280.45,570.83H74.91a3.8,3.8,0,0,1-3.8-3.8v-51a3.8,3.8,0,0,1,3.8-3.81H280.45a3.8,3.8,0,0,1,3.8,3.81v51a3.81,3.81,0,0,1-3.8,3.81ZM74.91,513.76a2.28,2.28,0,0,0-2.28,2.29v51a2.28,2.28,0,0,0,2.28,2.28H280.45a2.28,2.28,0,0,0,2.28-2.28v-51a2.28,2.28,0,0,0-2.28-2.29Z"/><circle id="Ellipse_5-2" data-name="Ellipse 5-2" class="cls-4" cx="101.55" cy="541.54" r="15.99"/><path id="Path_40-2-152" data-name="Path 40-2-152" class="cls-3" d="M138.47,530.88a2.67,2.67,0,0,0,0,5.33H264.08a2.67,2.67,0,1,0,.2-5.33H138.47Z"/><path id="Path_41-2-153" data-name="Path 41-2-153" class="cls-3" d="M138.47,546.86a2.67,2.67,0,0,0,0,5.33H264.08a2.66,2.66,0,1,0,.2-5.32H138.47Z"/><g id="Group_28" data-name="Group 28"><path id="Path_409-154" data-name="Path 409-154" class="cls-5" d="M445.83,699.2H433.37l-5.92-48h18.38Z"/><path id="Path_410-155" data-name="Path 410-155" class="cls-6" d="M449,711.27H408.85v-.5a15.63,15.63,0,0,1,15.63-15.63H449Z"/><path id="Path_411-156" data-name="Path 411-156" class="cls-5" d="M600.53,691.05,588.4,693.9l-16.77-45.4,17.89-4.21Z"/><path id="Path_412-157" data-name="Path 412-157" class="cls-6" d="M606.39,702.07l-39.09,9.2-.11-.49A15.63,15.63,0,0,1,578.81,692h0l23.87-5.62Z"/><path id="Path_413-158" data-name="Path 413-158" class="cls-6" d="M443.28,496.61c0-2.5.77-61.58,17-83.92l.24-.33,56.43,7.79-1.26,12.4c2.48,2.41,22,22.82,27.64,71.13l59.9,160.86-27.84,2.54L492.92,491.47,449.3,682.35H421.7Z"/><path id="Path_414-159" data-name="Path 414-159" class="cls-7" d="M453.63,414.87l5.52-29c-1.08-1.39-5.87-8.06-4.8-15.89.69-5.1,3.74-9.58,9-13.31l14.3-33.36.2-.11c1-.57,23.73-13.73,36.14-1.31.31.24,30.86,24.5,18.6,57.22L517.49,424.6Z"/><path id="Path_415-160" data-name="Path 415-160" class="cls-5" d="M434.44,454.05a10.23,10.23,0,0,0,9-11.33,10.68,10.68,0,0,0-.36-1.77l29.52-21.28L454.94,413l-25.33,21.23a10.3,10.3,0,0,0,4.83,19.87Z"/><path id="Path_416-161" data-name="Path 416-161" class="cls-7" d="M439.86,419.64l45.08-35.52-13.4-45.78a16.5,16.5,0,0,1,1.66-13,15.24,15.24,0,0,1,10-7.2c7.72-1.64,14.72,2.69,20.82,12.84l0,.09c1,2.47,24.5,60.52,6.57,72.94-17.55,12.14-58.22,29.82-58.63,30l-.48.2Z"/><circle id="Ellipse_66" data-name="Ellipse 66" class="cls-5" cx="499.78" cy="282.55" r="27.31"/><circle id="Ellipse_67" data-name="Ellipse 67" class="cls-6" cx="542.59" cy="248.64" r="24.16"/><path id="Path_417-162" data-name="Path 417-162" class="cls-6" d="M563.42,268.64A24.17,24.17,0,0,1,526.12,256a24.16,24.16,0,0,0,48-6,24.69,24.69,0,0,0-.82-3.89A24.14,24.14,0,0,1,563.42,268.64Z"/><path id="Path_418-163" data-name="Path 418-163" class="cls-6" d="M468.08,268.67c4.22-7.55,5.84-10.7,11.27-15.3,4.81-4.06,10.73-5.25,15.5-1.41a28.73,28.73,0,1,1-17.05,23C473.66,274.38,472.23,269.25,468.08,268.67Z"/></g></g></g></g></svg>